<svg version="1.1" preserveAspectRatio="none" xmlns="http://www.w3.org/2000/svg" width="500" height="500" viewBox="0 0 500 500"><rect width="100%" height="100%" fill="#E1E1E1" fill-opacity="1"/><svg viewBox="869.1937 575.8843 337.543 120" width="333" height="118.38491688466358" x="83.5px" y="190.8075px" xmlns="http://www.w3.org/2000/svg" xmlns:xlink="http://www.w3.org/1999/xlink" preserveAspectRatio="none"><defs></defs><style>.background {fill:#E1E1E1;fill-opacity:1;}.companyName {fill:#03D069;fill-opacity:1;}.icon3 {fill:#B6B5B5;fill-opacity:1;}.icon3-str {stroke:#B6B5B5;stroke-opacity:1;}.shape {fill:#F1F1F1;fill-opacity:1;}.shapeStroke-str {stroke:#03D069;stroke-opacity:1;}</style><g opacity="1" transform="rotate(0 869.1937 575.8843)">
<svg width="120.0004" height="120" x="869.1937" y="575.8843" version="1.1" preserveAspectRatio="none" viewBox="0 0 120.0004 120">
  <defs><rect x="0" y="0" width="120.0004" height="120" rx="10px" ry="10px" id="id-5kldYRpCP1706955571295"></rect></defs><use class="companyName shapeStroke-str" style="stroke-width:0;" xlink:href="#id-5kldYRpCP1706955571295"></use>
</svg>
</g><g opacity="1" transform="rotate(0 889.2568 590.8843)">
<svg width="79.8743" height="90" x="889.2568" y="590.8843" version="1.1" preserveAspectRatio="none" viewBox="29 20 141.99899291992188 160">
  <g transform="matrix(1 0 0 1 0 0)"><g><path d="M97.111 33.012H82.315a1.85 1.85 0 0 1-1.852-1.847 1.85 1.85 0 0 1 1.852-1.847H97.11a1.85 1.85 0 0 1 1.852 1.847 1.85 1.85 0 0 1-1.851 1.847z" data-color="1" class="background"></path><path d="M98.231 180H40.159C34.006 180 29 175.007 29 168.869V31.131C29 24.993 34.006 20 40.159 20h99.107c6.154 0 11.159 4.993 11.159 11.131v44.152a1.85 1.85 0 0 1-1.852 1.847 1.85 1.85 0 0 1-1.852-1.847V31.131c0-4.101-3.345-7.437-7.456-7.437H40.159c-4.111 0-7.456 3.336-7.456 7.437v137.738c0 4.101 3.345 7.437 7.456 7.437h58.072c1.023 0 1.852.827 1.852 1.847S99.254 180 98.231 180z" data-color="1" class="background"></path><path d="M97.111 170.682H82.315c-1.023 0-1.852-.827-1.852-1.847s.829-1.847 1.852-1.847H97.11c1.023 0 1.852.827 1.852 1.847s-.829 1.847-1.851 1.847z" data-color="1" class="background"></path><path d="M148.574 42.33H30.852A1.85 1.85 0 0 1 29 40.483a1.85 1.85 0 0 1 1.852-1.847h117.723a1.85 1.85 0 0 1 1.852 1.847 1.85 1.85 0 0 1-1.853 1.847z" data-color="1" class="background"></path><path d="M97.111 161.364H30.852A1.85 1.85 0 0 1 29 159.517a1.85 1.85 0 0 1 1.852-1.847h66.259a1.85 1.85 0 0 1 1.852 1.847 1.85 1.85 0 0 1-1.852 1.847z" data-color="1" class="background"></path><path d="M55.009 71.287h-6.505c-3.658 0-6.635-2.969-6.635-6.618V58.18c0-3.649 2.976-6.618 6.635-6.618h6.505c3.658 0 6.635 2.969 6.635 6.618v6.489c-.001 3.649-2.977 6.618-6.635 6.618zm-6.505-16.031a2.93 2.93 0 0 0-2.931 2.924v6.489a2.93 2.93 0 0 0 2.931 2.924h6.505a2.93 2.93 0 0 0 2.931-2.924V58.18a2.93 2.93 0 0 0-2.931-2.924h-6.505z" data-color="1" class="background"></path><path d="M79.919 71.287h-6.505c-3.658 0-6.635-2.969-6.635-6.618V58.18c0-3.649 2.976-6.618 6.635-6.618h6.505c3.658 0 6.635 2.969 6.635 6.618v6.489c0 3.649-2.977 6.618-6.635 6.618zm-6.505-16.031a2.93 2.93 0 0 0-2.931 2.924v6.489a2.93 2.93 0 0 0 2.931 2.924h6.505a2.93 2.93 0 0 0 2.931-2.924V58.18a2.93 2.93 0 0 0-2.931-2.924h-6.505z" data-color="1" class="background"></path><path d="M104.829 71.287h-6.504c-3.659 0-6.635-2.969-6.635-6.618V58.18c0-3.649 2.976-6.618 6.635-6.618h6.504c3.659 0 6.635 2.969 6.635 6.618v6.489c.001 3.649-2.976 6.618-6.635 6.618zm-6.504-16.031a2.931 2.931 0 0 0-2.932 2.924v6.489a2.931 2.931 0 0 0 2.932 2.924h6.504a2.931 2.931 0 0 0 2.932-2.924V58.18a2.931 2.931 0 0 0-2.932-2.924h-6.504z" data-color="1" class="background"></path><path d="M55.009 97.213h-6.505c-3.658 0-6.635-2.969-6.635-6.618v-6.488c0-3.65 2.976-6.619 6.635-6.619h6.505c3.658 0 6.635 2.969 6.635 6.619v6.488c-.001 3.649-2.977 6.618-6.635 6.618zm-6.505-16.032a2.93 2.93 0 0 0-2.931 2.925v6.488a2.93 2.93 0 0 0 2.931 2.924h6.505a2.93 2.93 0 0 0 2.931-2.924v-6.488a2.931 2.931 0 0 0-2.931-2.925h-6.505z" data-color="1" class="background"></path><path d="M79.919 97.213h-6.505c-3.658 0-6.635-2.969-6.635-6.618v-6.488c0-3.65 2.976-6.619 6.635-6.619h6.505c3.658 0 6.635 2.969 6.635 6.619v6.488c0 3.649-2.977 6.618-6.635 6.618zm-6.505-16.032a2.93 2.93 0 0 0-2.931 2.925v6.488a2.93 2.93 0 0 0 2.931 2.924h6.505a2.93 2.93 0 0 0 2.931-2.924v-6.488a2.931 2.931 0 0 0-2.931-2.925h-6.505z" data-color="1" class="background"></path><path d="M55.009 123.139h-6.505c-3.658 0-6.635-2.969-6.635-6.619v-6.488c0-3.65 2.976-6.619 6.635-6.619h6.505c3.658 0 6.635 2.969 6.635 6.619v6.489c-.001 3.649-2.977 6.618-6.635 6.618zm-6.505-16.032a2.93 2.93 0 0 0-2.931 2.925v6.488a2.931 2.931 0 0 0 2.931 2.925h6.505a2.93 2.93 0 0 0 2.931-2.924v-6.489a2.931 2.931 0 0 0-2.931-2.925h-6.505z" data-color="1" class="background"></path><path d="M79.919 123.139h-6.505c-3.658 0-6.635-2.969-6.635-6.619v-6.488c0-3.65 2.976-6.619 6.635-6.619h6.505c3.658 0 6.635 2.969 6.635 6.619v6.489c0 3.649-2.977 6.618-6.635 6.618zm-6.505-16.032a2.93 2.93 0 0 0-2.931 2.925v6.488a2.931 2.931 0 0 0 2.931 2.925h6.505a2.93 2.93 0 0 0 2.931-2.924v-6.489a2.931 2.931 0 0 0-2.931-2.925h-6.505z" data-color="1" class="background"></path><path d="M132.727 100.88a1.85 1.85 0 0 1-1.852-1.847V81.72h7.922c4.369 0 7.922 3.545 7.922 7.902 0 1.02-.829 1.847-1.852 1.847s-1.852-.827-1.852-1.847a4.219 4.219 0 0 0-4.219-4.208h-4.219v13.619a1.848 1.848 0 0 1-1.85 1.847z" data-color="1" class="background"></path><path d="M161.689 153.225h-26.076a1.85 1.85 0 0 1-1.852-1.847 1.85 1.85 0 0 1 1.852-1.847h24.591c.282-1.185.747-2.98 1.409-5.03 3.448-10.681 5.347-21.872 5.644-33.261a1.842 1.842 0 0 1 1.899-1.798 1.848 1.848 0 0 1 1.802 1.895c-.307 11.741-2.265 23.28-5.821 34.296-1.089 3.374-1.627 6.074-1.632 6.101l-.294 1.491h-1.522z" data-color="1" class="background"></path><path d="M122.742 153.224a1.85 1.85 0 0 1-1.821-1.527c-.02-.107-1.99-10.871-8.991-18.676-1.907-2.125-3.717-4.61-5.38-7.384-3.87-6.452-5.916-13.927-5.916-21.614 0-4.977 4.059-9.026 9.048-9.026 3.718 0 7.113 2.326 8.446 5.788l.607 1.575V67.48c0-4.358 3.554-7.902 7.922-7.902s7.921 3.545 7.921 7.902v16.087c0 1.02-.829 1.847-1.852 1.847s-1.852-.827-1.852-1.847V67.48a4.219 4.219 0 0 0-8.437 0v54.781l-7.767-20.151a5.377 5.377 0 0 0-4.99-3.419c-2.947 0-5.345 2.392-5.345 5.332 0 7.02 1.864 13.838 5.391 19.718 1.543 2.573 3.213 4.866 4.962 6.817 7.723 8.611 9.794 20.02 9.878 20.502a1.846 1.846 0 0 1-1.824 2.164z" data-color="1" class="background"></path><path d="M157.008 110.656a1.85 1.85 0 0 1-1.852-1.847V94.145a4.219 4.219 0 0 0-4.219-4.208h-4.219v13.619c0 1.02-.829 1.847-1.852 1.847s-1.852-.827-1.852-1.847V86.243h7.922c4.369 0 7.922 3.545 7.922 7.902v14.664a1.846 1.846 0 0 1-1.85 1.847z" data-color="1" class="background"></path><path d="M169.148 113.136a1.85 1.85 0 0 1-1.852-1.847v-9.412a4.218 4.218 0 0 0-4.218-4.208h-6.07a1.85 1.85 0 0 1-1.852-1.847 1.85 1.85 0 0 1 1.852-1.847h6.07c4.368 0 7.921 3.545 7.921 7.902v9.412a1.848 1.848 0 0 1-1.851 1.847z" data-color="1" class="background"></path><path d="M166.898 180h-50.774v-22.33h50.774V180zm-47.071-3.694h43.368v-14.943h-43.368v14.943z" data-color="1" class="background"></path><path d="M154.583 171.84a3.013 3.013 0 0 1-3.013-3.005 3.013 3.013 0 0 1 6.025 0 3.01 3.01 0 0 1-3.012 3.005zm0-3.694a.69.69 0 0 0-.691.689.69.69 0 0 0 1.381 0 .69.69 0 0 0-.69-.689z" data-color="1" class="background"></path></g></g>
</svg>
</g><g opacity="1" transform="rotate(0 1013.1941 575.8843)">
<svg width="193.5426" height="120" x="1013.1941" y="575.8843" version="1.1" preserveAspectRatio="none" viewBox="0.16 -29.68 125.48 77.80000000000001">
  <g transform="matrix(1 0 0 1 0 0)" class="companyName"><path id="id-D6z1nYkh10" d="M8.76 0L8.76-21.72L0.16-21.72L0.16-28L25.24-28L25.24-21.72L16.68-21.72L16.68 0L8.76 0Z M47.80-10.80Q47.80-10.72 47.68-8.92L47.68-8.92L31.92-8.92Q32.40-7.24 33.78-6.34Q35.16-5.44 37.24-5.44L37.24-5.44Q38.80-5.44 39.94-5.88Q41.08-6.32 42.24-7.32L42.24-7.32L46.24-3.16Q43.08 0.36 37 0.36L37 0.36Q33.20 0.36 30.32-1.08Q27.44-2.52 25.86-5.08Q24.28-7.64 24.28-10.88L24.28-10.88Q24.28-14.08 25.82-16.62Q27.36-19.16 30.08-20.60Q32.80-22.04 36.20-22.04L36.20-22.04Q39.44-22.04 42.08-20.70Q44.72-19.36 46.26-16.82Q47.80-14.28 47.80-10.80L47.80-10.80ZM36.24-16.64Q34.48-16.64 33.30-15.64Q32.12-14.64 31.80-12.92L31.80-12.92L40.68-12.92Q40.36-14.64 39.18-15.64Q38-16.64 36.24-16.64L36.24-16.64Z M62.40 0.36Q58.80 0.36 55.96-1.08Q53.12-2.52 51.54-5.08Q49.96-7.64 49.96-10.88L49.96-10.88Q49.96-14.12 51.54-16.66Q53.12-19.20 55.96-20.62Q58.80-22.04 62.40-22.04L62.40-22.04Q66.08-22.04 68.76-20.46Q71.44-18.88 72.56-16.08L72.56-16.08L66.68-13.08Q65.20-16 62.36-16L62.36-16Q60.32-16 58.98-14.64Q57.64-13.28 57.64-10.88L57.64-10.88Q57.64-8.44 58.98-7.06Q60.32-5.68 62.36-5.68L62.36-5.68Q65.20-5.68 66.68-8.60L66.68-8.60L72.56-5.60Q71.44-2.80 68.76-1.22Q66.08 0.36 62.40 0.36L62.40 0.36Z M89.48-22.04Q93.52-22.04 95.98-19.64Q98.44-17.24 98.44-12.40L98.44-12.40L98.44 0L90.84 0L90.84-11.16Q90.84-15.60 87.28-15.60L87.28-15.60Q85.32-15.60 84.14-14.32Q82.96-13.04 82.96-10.48L82.96-10.48L82.96 0L75.36 0L75.36-29.68L82.96-29.68L82.96-19.68Q84.20-20.84 85.88-21.44Q87.56-22.04 89.48-22.04L89.48-22.04Z M118.40-21.68L125.64-21.68L116.28 0.88Q114.64 4.88 112.28 6.50Q109.92 8.12 106.52 8.12L106.52 8.12Q104.80 8.12 103.06 7.58Q101.32 7.04 100.24 6.16L100.24 6.16L102.88 0.84Q103.52 1.44 104.42 1.78Q105.32 2.12 106.24 2.12L106.24 2.12Q107.32 2.12 108.02 1.68Q108.72 1.24 109.20 0.28L109.20 0.28L99.92-21.68L107.72-21.68L113.04-8.44L118.40-21.68Z M13.80 17.96Q16.76 17.96 19.18 19.32Q21.60 20.68 23.02 23.22Q24.44 25.76 24.44 29.12L24.44 29.12Q24.44 32.48 23.02 35.04Q21.60 37.60 19.18 38.98Q16.76 40.36 13.80 40.36L13.80 40.36Q9.52 40.36 7.40 37.84L7.40 37.84L7.40 40L0.16 40L0.16 10.32L7.76 10.32L7.76 20.20Q9.96 17.96 13.80 17.96L13.80 17.96ZM12.20 34.32Q14.20 34.32 15.48 32.94Q16.76 31.56 16.76 29.12L16.76 29.12Q16.76 26.72 15.48 25.36Q14.20 24 12.20 24L12.20 24Q10.20 24 8.92 25.36Q7.64 26.72 7.64 29.12L7.64 29.12Q7.64 31.56 8.92 32.94Q10.20 34.32 12.20 34.32L12.20 34.32Z M27.96 40L27.96 10.32L35.56 10.32L35.56 40L27.96 40Z M51.36 40.36Q47.88 40.36 45.08 38.92Q42.28 37.48 40.70 34.92Q39.12 32.36 39.12 29.12L39.12 29.12Q39.12 25.92 40.70 23.36Q42.28 20.80 45.06 19.38Q47.84 17.96 51.36 17.96L51.36 17.96Q54.88 17.96 57.68 19.38Q60.48 20.80 62.04 23.34Q63.60 25.88 63.60 29.12L63.60 29.12Q63.60 32.36 62.04 34.92Q60.48 37.48 57.68 38.92Q54.88 40.36 51.36 40.36L51.36 40.36ZM51.36 34.32Q53.36 34.32 54.64 32.94Q55.92 31.56 55.92 29.12L55.92 29.12Q55.92 26.72 54.64 25.36Q53.36 24 51.36 24L51.36 24Q49.36 24 48.08 25.36Q46.80 26.72 46.80 29.12L46.80 29.12Q46.80 31.56 48.08 32.94Q49.36 34.32 51.36 34.32L51.36 34.32Z M83.20 18.32L90.44 18.32L90.44 36.04Q90.44 42.08 87.16 45.10Q83.88 48.12 77.72 48.12L77.72 48.12Q74.52 48.12 71.72 47.40Q68.92 46.68 66.96 45.28L66.96 45.28L69.72 39.96Q71.04 41.04 73.06 41.66Q75.08 42.28 77.04 42.28L77.04 42.28Q80.04 42.28 81.44 40.96Q82.84 39.64 82.84 37.04L82.84 37.04L82.84 36.32Q80.64 38.88 76.40 38.88L76.40 38.88Q73.52 38.88 71.08 37.58Q68.64 36.28 67.20 33.90Q65.76 31.52 65.76 28.40L65.76 28.40Q65.76 25.32 67.20 22.94Q68.64 20.56 71.08 19.26Q73.52 17.96 76.40 17.96L76.40 17.96Q81.04 17.96 83.20 20.96L83.20 20.96L83.20 18.32ZM78.20 32.84Q80.24 32.84 81.58 31.60Q82.92 30.36 82.92 28.40L82.92 28.40Q82.92 26.44 81.60 25.22Q80.28 24 78.20 24L78.20 24Q76.12 24 74.78 25.22Q73.44 26.44 73.44 28.40L73.44 28.40Q73.44 30.36 74.80 31.60Q76.16 32.84 78.20 32.84L78.20 32.84Z M103.20 40.36Q100.48 40.36 97.84 39.74Q95.20 39.12 93.60 38.12L93.60 38.12L95.88 32.92Q97.36 33.84 99.40 34.38Q101.44 34.92 103.44 34.92L103.44 34.92Q105.28 34.92 106.06 34.54Q106.84 34.16 106.84 33.44L106.84 33.44Q106.84 32.72 105.90 32.42Q104.96 32.12 102.92 31.84L102.92 31.84Q100.32 31.52 98.50 31Q96.68 30.48 95.36 29.08Q94.04 27.68 94.04 25.16L94.04 25.16Q94.04 23.08 95.28 21.46Q96.52 19.84 98.90 18.90Q101.28 17.96 104.60 17.96L104.60 17.96Q106.96 17.96 109.28 18.44Q111.60 18.92 113.16 19.80L113.16 19.80L110.88 24.96Q108.00 23.36 104.64 23.36L104.64 23.36Q102.84 23.36 102.00 23.78Q101.16 24.20 101.16 24.88L101.16 24.88Q101.16 25.64 102.08 25.94Q103.00 26.24 105.12 26.56L105.12 26.56Q107.80 26.96 109.56 27.48Q111.32 28 112.62 29.38Q113.92 30.76 113.92 33.24L113.92 33.24Q113.92 35.28 112.68 36.90Q111.44 38.52 109.02 39.44Q106.60 40.36 103.20 40.36L103.20 40.36Z"/></g>
</svg>
</g></svg></svg>